<?xml version="1.0" encoding="UTF-8" standalone="no"?>
<!DOCTYPE svg PUBLIC "-//W3C//DTD SVG 1.1//EN" "http://www.w3.org/Graphics/SVG/1.1/DTD/svg11.dtd">
<!-- Generated by Microsoft Visio, SVG Export MPO.svg Page-1 -->
<svg xmlns="http://www.w3.org/2000/svg" xmlns:xlink="http://www.w3.org/1999/xlink" xmlns:ev="http://www.w3.org/2001/xml-events"
		xmlns:v="http://schemas.microsoft.com/visio/2003/SVGExtensions/" width="1.9375in" height="2.20683in"
		viewBox="0 0 139.5 158.892" xml:space="preserve" color-interpolation-filters="sRGB" class="st3">
	<v:documentProperties v:langID="2055" v:viewMarkup="false"/>

	<style type="text/css">
	<![CDATA[
		.st1 {fill:url(#grad1-5);stroke:#000000;stroke-linecap:round;stroke-linejoin:round;stroke-width:0.75}
		.st2 {fill:url(#grad0-9);stroke:#000000;stroke-linecap:round;stroke-linejoin:round;stroke-width:0.75}
		.st3 {fill:none;fill-rule:evenodd;font-size:12px;overflow:visible;stroke-linecap:square;stroke-miterlimit:3}
	]]>
	</style>

	<defs id="Patterns_And_Gradients">
		<radialGradient id="grad1-5" cx="1" cy="1" r="1.4">
			<stop offset="0" stop-color="#d8d8d8" stop-opacity="1"/>
			<stop offset="0.74" stop-color="#3f3f3f" stop-opacity="1"/>
		</radialGradient>
		<linearGradient id="grad0-9" x1="0" y1="0" x2="1" y2="0" gradientTransform="rotate(160 0.5 0.5)">
			<stop offset="0" stop-color="#d8d8d8" stop-opacity="1"/>
			<stop offset="0.74" stop-color="#3f3f3f" stop-opacity="1"/>
		</linearGradient>
	</defs>
	<g v:mID="0" v:index="1" v:groupContext="foregroundPage">
		<title>Page-1</title>
		<v:pageProperties v:drawingScale="1" v:pageScale="1" v:drawingUnits="19" v:shadowOffsetX="8.50394"
				v:shadowOffsetY="-8.50394"/>
		<g id="group58-1" v:mID="58" v:groupContext="group">
			<title>Sheet.58</title>
		</g>
		<g id="shape146-2" v:mID="146" v:groupContext="shape">
			<title>Sheet.146</title>
			<path d="M0 53.13 L47.12 81.23 L139.5 28.82 L89.59 0 L0 53.13 ZM12.24 122.51 L19.97 143.41 L46.78 158.89 L47.12 81.23
						 L0 53.13 L0.4 115.32 L12.24 122.51 Z" class="st1"/>
		</g>
		<g id="shape143-6" v:mID="143" v:groupContext="shape" transform="translate(106.875,-68.5748)">
			<title>Sheet.143</title>
			<path d="M9.24 152.24 L9.24 152.24 A3.6222 2.11565 119.19 0 1 9.63 152.26 A3.6222 2.11565 119.19 0 1 10.13 152.47 L4.47
						 149.13 A4.64149 2.711 -60.81 0 0 2.95 149.11 A3.62454 2.11699 -60.74 0 0 0.79 155.46 L6.49 158.75 L6.5 158.73
						 A3.62181 2.11543 119.19 0 1 9.22 152.25 L9.24 152.24 ZM6.5 158.73 A3.62454 2.11699 -60.74 0 0 7.87 158.75
						 A3.6222 2.11565 -60.81 0 0 10.13 152.47 A3.6222 2.11565 -60.81 0 0 9.65 152.27 L9.63 152.26 A3.6222 2.11565
						 -60.81 0 0 9.46 152.24 A3.6222 2.11565 -60.81 0 0 9.24 152.24 L9.22 152.25 A3.62357 2.11642 -60.74 0 0 6.5
						 158.73 Z" class="st2"/>
		</g>
		<g id="shape145-10" v:mID="145" v:groupContext="shape" transform="translate(73.9043,-49.6588)">
			<title>Sheet.145</title>
			<path d="M9.24 152.24 L9.24 152.24 A3.6222 2.11565 119.19 0 1 9.63 152.26 A3.6222 2.11565 119.19 0 1 10.13 152.47 L4.47
						 149.13 A4.64149 2.711 -60.81 0 0 2.95 149.11 A3.62454 2.11699 -60.74 0 0 0.79 155.46 L6.49 158.75 L6.5 158.73
						 A3.62181 2.11543 119.19 0 1 9.22 152.25 L9.24 152.24 ZM6.5 158.73 A3.62454 2.11699 -60.74 0 0 7.87 158.75
						 A3.6222 2.11565 -60.81 0 0 10.13 152.47 A3.6222 2.11565 -60.81 0 0 9.65 152.27 L9.63 152.26 A3.6222 2.11565
						 -60.81 0 0 9.46 152.24 A3.6222 2.11565 -60.81 0 0 9.24 152.24 L9.22 152.25 A3.62357 2.11642 -60.74 0 0 6.5
						 158.73 Z" class="st2"/>
		</g>
	</g>
</svg>
