<?xml version="1.0" encoding="UTF-8"?>
<svg id="Layer_1" data-name="Layer 1" xmlns="http://www.w3.org/2000/svg" viewBox="0 0 28.35 28.35">
  <defs>
    <style>
      .cls-1 {
        fill: #009a82;
      }
    </style>
  </defs>
  <path class="cls-1" d="m2.97,12.22c-.17,0-.34-.06-.48-.16-.19-.14-.31-.36-.32-.59-.16-1.53.7-3.65,2.24-5.52,1.87-2.27,4.35-3.69,6.8-3.91.31,0,.53.1.68.27.16.18.24.44.19.69-.02.08-1.61,7.83-8.95,9.21h-.05s-.1.01-.1.01ZM10.12,3.89c-1.61.47-3.2,1.56-4.46,3.09-.91,1.11-1.57,2.35-1.8,3.37,3.83-1.19,5.56-4.56,6.25-6.46Z"/>
  <path class="cls-1" d="m2.83,11.61c-.06-.04-.09-.1-.1-.17-.15-1.38.68-3.39,2.11-5.12,1.77-2.15,4.11-3.5,6.41-3.71.07,0,.15.02.2.08.05.06.07.14.06.21-.02.07-1.57,7.45-8.5,8.75-.02,0-.03,0-.05,0-.05,0-.1-.02-.15-.05Zm2.39-4.98c-1.25,1.52-2.02,3.25-2.02,4.49,5.56-1.2,7.37-6.58,7.75-7.98-2.06.29-4.13,1.55-5.73,3.49Z"/>
  <path class="cls-1" d="m6.03,13.55c-1.45,0-2.75-.57-3.66-1.6-.19-.23-.25-.53-.16-.8.1-.28.33-.48.61-.54,6.13-1.15,7.61-7.65,7.67-7.93.06-.29.27-.52.55-.61l.08-.03h.16c.21-.01.42.07.57.22,1.13,1.07,1.69,3.17,1.36,5.22-.21,1.35-.79,2.55-1.68,3.45-1.05,1.07-2.22,1.83-3.47,2.25-.68.23-1.36.35-2.03.35Zm-1.17-1.82c.36.13.76.19,1.18.19.49,0,.99-.09,1.5-.26,1-.34,1.96-.97,2.83-1.86.65-.66,1.08-1.55,1.24-2.57.12-.79.07-1.64-.13-2.37-.85,2.1-2.75,5.43-6.62,6.86Z"/>
  <path class="cls-1" d="m2.79,11.57c-.06-.07-.08-.16-.05-.24.03-.08.1-.14.19-.16,6.6-1.24,8.09-8.3,8.11-8.37.02-.09.08-.16.16-.19.09-.03.18,0,.24.06,1,.94,1.49,2.89,1.2,4.73-.2,1.24-.72,2.33-1.53,3.15-.99,1.01-2.08,1.72-3.24,2.11-.63.21-1.25.32-1.85.32-1.28,0-2.42-.48-3.24-1.41Zm.68-.02c1.06.95,2.62,1.19,4.25.64,1.09-.37,2.11-1.04,3.05-2,.73-.75,1.21-1.74,1.39-2.88.23-1.47-.08-3.05-.76-3.97-.46,1.6-2.36,6.9-7.93,8.2Z"/>
  <path class="cls-1" d="m11.76,17.75c-.23,0-.45-.1-.61-.27l-3.97-4.51c-.18-.22-.25-.49-.17-.75.07-.26.27-.47.53-.56,1-.34,1.95-.96,2.83-1.85.65-.66,1.08-1.55,1.24-2.57.04-.29.25-.54.54-.64l.09-.03h.17c.21-.01.42.07.57.22l4.42,4.29c.17.16.26.39.25.63-.32,5.12-5.7,6.02-5.75,6.03h-.13Zm.29-1.71c1.02-.27,3.55-1.23,3.93-4.07l-3.16-3.07c-.3.78-.74,1.47-1.3,2.04-.74.75-1.54,1.35-2.38,1.79l2.91,3.31Z"/>
  <path class="cls-1" d="m11.58,17.1l-3.97-4.51c-.05-.06-.07-.15-.05-.23s.08-.14.16-.17c1.09-.37,2.11-1.04,3.05-2h0c.73-.75,1.21-1.74,1.39-2.88.01-.09.08-.16.16-.19.08-.03.18,0,.25.06l4.43,4.29c.05.05.08.12.07.19-.3,4.67-5.22,5.5-5.27,5.5-.01,0-.02,0-.04,0-.07,0-.14-.03-.18-.08Zm.98-9.24c-.24,1.05-.74,1.98-1.44,2.69h0c-.89.91-1.87,1.58-2.9,1.99l3.64,4.13c.76-.15,4.41-1.09,4.72-4.92l-4.02-3.9Z"/>
  <path class="cls-1" d="m25.39,26.31c-.17,0-.34-.05-.48-.16l-7.39-5.45c-.19-.14-.31-.36-.33-.59-.01-.25.08-.48.25-.65.7-.67,1.39-1.4,2.03-2.17.15-.18.38-.29.62-.29.29.01.53.15.67.36l5.29,7.68c.23.32.18.76-.1,1.04-.15.15-.35.23-.57.23Zm-3.42-4.34l-1.95-2.83c-.25.28-.51.56-.77.83l2.72,2.01Z"/>
  <path class="cls-1" d="m25.24,25.69l-7.39-5.44c-.06-.04-.09-.11-.1-.18,0-.07.02-.14.08-.19.72-.69,1.42-1.44,2.07-2.22.05-.06.12-.09.2-.09.08,0,.15.04.19.11l5.29,7.68c.07.1.06.23-.03.32-.05.05-.11.07-.17.07-.05,0-.1-.02-.15-.05Zm-6.86-5.67l5.97,4.4-4.28-6.21c-.54.63-1.11,1.24-1.69,1.81Z"/>
  <path class="cls-1" d="m12.98,23.89c-.17,0-.32-.05-.46-.14-3.34-2.35-2.4-5.77-1.43-7.25.13-.2.33-.33.56-.36.16-.03,4.14-.71,4.38-4.53.02-.31.22-.59.51-.7,1.02-.42,1.99-.63,2.89-.63,3.06,0,4.23,2.4,4.24,2.42.06.12.08.25.08.39-.13,1.66-2.35,4.43-3.02,5.24-.67.81-1.4,1.58-2.16,2.3-1.53,1.47-3.74,3.22-5.58,3.24h0s0,0,0,0Zm-.69-6.23c-.45.85-1.2,2.92.93,4.59,1.01-.16,2.53-1.15,4.23-2.77.7-.67,1.38-1.4,2.03-2.17,1.57-1.88,2.41-3.35,2.61-4.09-.28-.42-1.07-1.31-2.63-1.31-.57,0-1.19.12-1.86.35-.54,3.89-4.09,5.11-5.3,5.41Z"/>
  <path class="cls-1" d="m12.83,23.27c-3.75-2.64-1.3-6.43-1.28-6.47.04-.06.1-.1.17-.11.19-.03,4.59-.78,4.86-5.05,0-.09.07-.18.15-.21,4.69-1.92,6.39,1.48,6.41,1.51.02.04.03.08.02.13-.09,1.17-1.55,3.3-2.89,4.9-.66.79-1.37,1.55-2.11,2.26-1.2,1.15-3.46,3.07-5.19,3.09h0s-.1-.02-.14-.04Zm4.23-11.44c-.36,4.14-4.41,5.17-5.15,5.33-.33.55-1.89,3.48,1.14,5.67,1.16-.06,2.85-1.1,4.78-2.95.72-.69,1.42-1.44,2.07-2.22,1.58-1.89,2.66-3.67,2.77-4.56-.23-.42-1.73-2.79-5.61-1.27Z"/>
</svg>